<?xml version="1.0" encoding="UTF-8"?>
<svg width="360px" height="134px" viewBox="0 0 360 134" version="1.1" xmlns="http://www.w3.org/2000/svg" xmlns:xlink="http://www.w3.org/1999/xlink">
    <title>BC710DC3-94CC-4202-AF88-1437A37095BA@0.5x</title>
    <defs>
        <rect id="path-1" x="0" y="0" width="430" height="149"></rect>
    </defs>
    <g id="Demo-push" stroke="none" stroke-width="1" fill="none" fill-rule="evenodd">
        <g id="Budget.onboarding.iii(sliders).ii" transform="translate(-70.000000, -229.000000)">
            <g id="Component*-/-UI-/-Headers*-/-#02" transform="translate(0.000000, 125.000000)">
                <g id="Budget-feature-graphic" transform="translate(0.000000, 99.000000)">
                    <mask id="mask-2" fill="white">
                        <use xlink:href="#path-1"></use>
                    </mask>
                    <g id="Rectangle"></g>
                    <path d="M268.601391,104.710802 C317.343368,121.797048 404.74017,121.797048 425.50028,120.500367 C518.613403,114.684498 523,72.9963439 523,51.8423973 C523,25.9720556 421.592551,5 296.500123,5 C171.407695,5 70,25.9720556 70,51.8423973 C70,62.3784548 75.9861357,65.4318663 104.375627,73.2572364 C121.541095,77.9887811 134.402842,94.2242295 159.388291,97.8983783 C194.544373,103.068134 243.073814,95.7622435 268.601391,104.710802 Z" id="Oval-Copy" fill="#C9C3DF" opacity="0.16" mask="url(#mask-2)"></path>
                    <g id="A-Human/Sitting" mask="url(#mask-2)">
                        <g transform="translate(361.046156, 103.826923) scale(-1, 1) translate(-361.046156, -103.826923) translate(332.393782, 68.653846)">
                            <g id="Head/Front">
                                <g id="Head" transform="translate(24.419118, 7.307692)" fill="#B28B67">
                                    <path d="M7.57257513,1.75652556 C8.72301549,3.83366436 8.58631327,9.1024992 7.0994716,9.47374184 C6.5065489,9.62178598 5.24347859,9.259161 3.95793792,8.50862562 L4.76470588,14.0384615 L0,14.0384615 L1.64018873,6.63258519 C0.725446623,5.59246485 0.10634362,4.31780079 0.209801184,2.88951036 C0.507903794,-1.2259655 6.42213476,-0.320613242 7.57257513,1.75652556 Z" id="Head-[skin]"></path>
                                </g>
                                <path d="M29.2759313,6.67024168 C28.6479568,6.57048804 26.9571079,6.50190465 26.6452852,6.50194892 C26.4460158,6.50194892 26.2300684,6.54604774 26.1120469,6.36881124 C26.0153969,6.22367478 26.0508033,5.97820909 26.0219587,5.8097835 C25.9884661,5.61412822 25.940893,5.42099667 25.8927731,5.22835216 C25.7558408,4.68017202 25.5487792,4.15864599 25.259057,3.66899862 C24.7154292,2.75036188 23.9190349,2.03078967 22.9136196,1.61207232 C21.8033521,1.14974319 20.5469931,1.04387947 19.3527435,1.13765586 C18.0747396,1.23798509 16.9178558,1.64665181 15.7112117,2.03123243 C14.5613454,2.3977042 13.3569796,2.54195514 12.1543455,2.36299188 C10.9426432,2.18270034 10.0270883,1.54654396 9.00504064,0.942753275 C7.95875074,0.324617191 6.76304293,-0.0796662115 5.52614152,0.0132689392 C4.37153616,0.100049737 3.30738355,0.561847557 2.35264002,1.17874392 C1.45936791,1.75592478 0.722303358,2.45034826 0.306175166,3.42769487 C-0.141486174,4.47902653 -0.141076061,5.63303404 0.59507713,6.56216417 C1.66210054,7.90894903 3.64299285,8.25722339 5.29100995,8.22259963 C6.24424973,8.20263119 7.18044703,8.03407277 8.08041765,7.72746204 C9.28063671,7.31852967 10.317813,6.62543446 11.4406574,6.06308603 C11.9676073,5.79920156 12.5122831,5.58247094 13.0832063,5.42635406 C13.6372236,5.27479759 14.182902,5.2052844 14.6845161,5.52947267 C15.215157,5.87243393 15.6906604,6.20932938 16.2977191,6.42402331 C16.8800798,6.62999487 17.4969357,6.74520081 18.1173914,6.74055184 C19.3245823,6.73151955 20.5145941,6.36717303 21.6870622,6.12312417 C22.6431728,5.9241482 23.6661774,5.72583636 24.6409253,5.91710833 C25.0476665,5.99693781 25.6417838,6.16173277 25.7886954,6.57119646 C23.316123,7.00527755 22.3450228,9.96733643 23.0420785,12.141771 C23.418289,13.3153928 25.679742,14.6873442 26.5590247,14.0703535 C27.1160756,13.6794722 26.7778885,13.1663157 26.5590247,12.8275607 C26.139889,12.17883 25.9964861,11.3455129 26.7720558,10.8938543 C27.4410415,10.5043148 28.144434,11.4293677 28.1577398,11.4283494 C28.3416073,11.4143139 29.9303815,10.5439511 31.0250181,9.27387096 C32.1048811,9.335878 32.2687119,8.64615856 32.0108618,8.08209769 C31.7530117,7.51803682 30.1435941,6.80816117 29.2759313,6.67024168 Z" id="hair" fill="#191847"></path>
                            </g>
                            <g id="Bottom/Skinny-Jeans-1" transform="translate(19.698529, 38.346154)">
                                <path d="M29.1313299,4.00183285 L29.2482693,3.9368002 C30.8803839,3.10610671 33.4733266,4.3051589 33.4715036,5.63632104 C33.4659131,9.71622372 29.6629736,28.9447904 29.4644171,30.1603298 C29.2658606,31.3758691 27.1388224,31.6969389 27.014958,30.1643133 C26.9065589,28.823047 26.7470138,25.6657255 26.686328,22.4456223 L26.6723411,21.5671731 C26.6421798,19.2275162 26.6715207,16.9389571 26.8180668,15.375933 C26.9693345,13.7625496 27.1322447,12.2260373 27.2926222,10.8553216 C25.2973044,14.384129 22.2109835,19.4359678 18.0338798,26.0113306 L15.7663718,24.9970457 C17.5469756,19.2532238 19.0070439,15.1982384 20.1465768,12.8320895 C22.0977337,8.780668 23.9272623,5.31116564 24.6972518,4.08906157 C25.9086709,2.16633388 28.017506,2.83768386 29.1313299,4.00183285 Z" id="Legs-[skin]" fill="#B28B67"></path>
                                <path d="M19.3882537,23.8267414 L20.5278054,4.20281407 C21.2754916,0.805849019 27.3962647,2.33877595 27.3813149,4.15660838 C27.3472846,8.28365077 24.7300323,22.5571827 24.7199018,23.7867665 L19.3882537,23.8267414 Z" id="LegLower" fill="#1F28CF" transform="translate(23.384784, 13.006353) rotate(20.000000) translate(-23.384784, -13.006353) "></path>
                                <g id="Left-[shoe]" transform="translate(19.771102, 27.175306) rotate(30.000000) translate(-19.771102, -27.175306) translate(14.061257, 25.151209)" fill="#E4E4E4">
                                    <path d="M5.23610906e-16,2.52639438 C5.23610906e-16,2.52639438 5.23610906e-16,2.52639438 5.23610906e-16,2.52639438 C5.23610906e-16,2.87401581 0.0591489107,3.38128195 0.177446732,4.04819277 C0.589331008,4.04819277 4.29100435,4.04819277 11.2824668,4.04819277 C11.5710469,3.11412188 11.4044617,2.60984706 10.7827112,2.53536832 C10.1609608,2.46088958 9.64446213,2.39364123 9.23321526,2.33362329 L4.81522648,0.405276532 C4.30905663,0.184345465 3.71962489,0.41557718 3.49869382,0.921747022 C3.49695675,0.925726794 3.49524561,0.929717838 3.49356053,0.933719901 L3.47773108,0.971314707 L3.47773108,0.971314707 C2.90215278,1.2342462 2.43443566,1.36571194 2.07457971,1.36571194 C1.94138476,1.36571194 1.78507072,1.34171859 1.6056376,1.29373188 L1.60563712,1.29373365 C0.924857404,1.11166928 0.225384063,1.51595794 0.043319687,2.19673766 C0.0145635061,2.3042635 5.09980018e-16,2.41508973 5.23610906e-16,2.52639438 Z" id="shoe"></path>
                                </g>
                                <g id="Right-[shoe]" transform="translate(26.186528, 27.951807)" fill="#E4E4E4">
                                    <path d="M0,2.52639438 C0,2.52639438 0,2.52639438 0,2.52639438 C0,2.87401581 0.0591489107,3.38128195 0.177446732,4.04819277 C0.589331008,4.04819277 4.29100435,4.04819277 11.2824668,4.04819277 C11.5710469,3.11412188 11.4044617,2.60984706 10.7827112,2.53536832 C10.1609608,2.46088958 9.64446213,2.39364123 9.23321526,2.33362329 L4.81522648,0.405276532 C4.30905663,0.184345465 3.71962489,0.41557718 3.49869382,0.921747022 C3.49695675,0.925726794 3.49524561,0.929717838 3.49356053,0.933719901 L3.47773108,0.971314707 L3.47773108,0.971314707 C2.90215278,1.2342462 2.43443566,1.36571194 2.07457971,1.36571194 C1.94138476,1.36571194 1.78507072,1.34171859 1.6056376,1.29373188 L1.60563712,1.29373365 C0.924857404,1.11166928 0.225384063,1.51595794 0.043319687,2.19673766 C0.0145635061,2.3042635 2.08413717e-16,2.41508973 2.22044605e-16,2.52639438 Z" id="shoe"></path>
                                </g>
                                <path d="M34.0169647,7.02323428 C34.0169647,12.1445783 31.5328331,24.090659 31.5312612,25.2183348 L26.1865285,25.2223542 C26.9688318,14.5629843 27.2462307,9.17588295 27.0187251,9.0610502 C26.6774668,8.88880107 13.0294395,10.3951866 8.93617408,10.3951866 C3.03366506,10.3951866 0.591915277,6.75091993 0.393782383,0 L12.0864331,0 C14.4671618,0.249420132 26.885261,2.70173624 31.4970967,3.54475428 C33.4715026,3.90566474 34.0169647,5.61243584 34.0169647,7.02323428 Z" id="Leg-and-Butt" fill="#2B44FF"></path>
                            </g>
                            <g id="Body/Long-Sleeve-1" transform="translate(6.245943, 17.346154)">
                                <path d="M33.9525863,12.9224558 L41.6640855,11.8568508 C43.2066982,10.9876202 44.625827,10.3991663 45.9214721,10.0914891 C46.28608,10.0807047 46.8661012,10.2149785 46.0020304,10.9447181 C45.1379596,11.6744577 44.2612379,12.481702 44.4151892,12.8711513 C44.5691404,13.2606005 45.3727153,13.1156993 45.5058359,13.7147054 C45.594583,14.1140428 44.2904298,14.1789311 41.5933764,13.9093704 L35.3361554,16.4224599 L33.9525863,12.9224558 Z M9.72793627,14.730686 C6.38921288,24.8233666 4.52906559,30.2618104 4.14749443,31.0460176 C3.86768425,31.6210849 1.79679182,33.3681724 0.359730502,34.3664054 C-0.217086425,34.7670825 0.0216498104,35.2798199 0.239507228,35.4159986 C2.01151072,36.5236457 3.17821537,35.2138787 4.71194545,34.4910225 C6.3922785,33.6990715 6.25034817,35.9352845 7.58238851,35.3314588 C7.17340663,34.4028239 6.2170364,32.6747856 6.66897849,31.5401448 C6.86984164,31.03586 9.31510568,25.4381271 14.0047706,14.7469462 L9.72793627,14.730686 Z" id="Arms-[skin]" fill="#997659"></path>
                                <path d="M20.5567085,1.90177003 L23.9122837,1.83504742 C25.3926123,9.29293642 30.283732,13.6575253 40.162136,11.1708209 L42.3415951,20.7510244 C33.0843289,22.7963628 24.5393132,19.7168019 21.9564894,9.58066366 C21.2878779,6.95673768 20.7014618,4.21646112 20.5567085,1.90177003 Z" id="Clothes-Back" fill="#AFB9C5" transform="translate(31.449152, 11.591873) rotate(5.000000) translate(-31.449152, -11.591873) "></path>
                                <path d="M19.787968,0 L19.7901558,0.003 L24.8642278,1.18029536 C24.8642278,9.78791619 27.4996188,15.3617156 28.9544748,21.6490097 L29.0697738,22.1604278 L15.3673202,22.1609194 C15.1743228,24.4066644 15.0558022,26.7148784 14.9940395,29.0855615 L4.73415576,29.0855615 C7.05910295,16.5538323 11.9662799,6.85864514 19.4556866,0 L19.787968,0 Z" id="Clothes" fill="#C5CFD6"></path>
                                <path d="M17.5291703,9.54966821 C17.1761406,15.0578564 17.3838447,19.2614429 18.1522826,22.1604278 L15.3674059,22.1599225 C15.7327948,17.908727 16.3650817,13.88139 17.3844664,10.0779113 Z" id="Shade" fill-opacity="0.1" fill="#000000"></path>
                            </g>
                        </g>
                    </g>
                </g>
            </g>
        </g>
    </g>
</svg>