<?xml version="1.0" encoding="UTF-8"?>
<svg width="14px" height="15px" viewBox="0 0 14 15" version="1.1" xmlns="http://www.w3.org/2000/svg" xmlns:xlink="http://www.w3.org/1999/xlink">
    <title>Icon Placeholder</title>
    <defs>
        <path d="M12.6666667,5.33300625 C12.8434918,5.33305225 13.0130878,5.26282912 13.138122,5.1377949 C13.2631563,5.01276067 13.3333334,4.84316468 13.3333334,4.66633959 L13.3333334,2.66633959 C13.3333334,2.3794535 13.1498253,2.12473724 12.8776067,2.03417959 L6.87760672,0.0341795866 C6.74067224,-0.0113931955 6.59266121,-0.0113931955 6.45572672,0.0341795866 L0.455726723,2.03417959 C0.183508149,2.12473724 -1.77635684e-15,2.3794535 -1.77635684e-15,2.66633959 L-1.77635684e-15,4.66633959 C-1.77635684e-15,4.84316468 0.0701771883,5.01276067 0.195211412,5.1377949 C0.320245635,5.26282912 0.489841635,5.33305225 0.666666723,5.33300625 L1.33333339,5.33300625 L1.33333339,10.1225196 C0.53654294,10.4031804 0.00259889455,11.1549015 -1.77635684e-15,11.9996729 L-1.77635684e-15,13.3330063 C-1.77635684e-15,13.5098313 0.0701771883,13.6794273 0.195211412,13.8044616 C0.320245635,13.9294958 0.489841635,13.9996729 0.666666723,13.9996729 L12.6666667,13.9996729 C12.8434918,13.9996729 13.0130878,13.9294958 13.138122,13.8044616 C13.2631563,13.6794273 13.3333334,13.5098313 13.3333334,13.3330063 L13.3333334,11.9996729 C13.3307346,11.1549015 12.7967905,10.4031804 12,10.1225196 L12,5.33300625 L12.6666667,5.33300625 Z M12.0000001,12.6663396 L1.33333339,12.6663396 L1.33333339,11.9996729 C1.33370088,11.6316354 1.63196255,11.3333737 2.00000006,11.3330063 L11.3333334,11.3330063 C11.7013709,11.3333737 11.9996326,11.6316354 12.0000001,11.9996729 L12.0000001,12.6663396 Z M2.66666672,9.99967292 L2.66666672,5.33300625 L4.00000006,5.33300625 L4.00000006,9.99967292 L2.66666672,9.99967292 Z M5.33333339,9.99967292 L5.33333339,5.33300625 L8.00000006,5.33300625 L8.00000006,9.99967292 L5.33333339,9.99967292 Z M9.33333339,9.99967292 L9.33333339,5.33300625 L10.6666667,5.33300625 L10.6666667,9.99967292 L9.33333339,9.99967292 Z M1.33333339,3.99967292 L1.33333339,3.14680625 L6.66666672,1.36880625 L12.0000001,3.14680625 L12.0000001,3.99967292 L1.33333339,3.99967292 Z" id="path-1"></path>
    </defs>
    <g id="Symbols" stroke="none" stroke-width="1" fill="none" fill-rule="evenodd">
        <g id="Component*-/-Filter*-/-Item-Grp-#1-+-clear-Copy" transform="translate(-13, -9)">
            <g id="Icon-Placeholder" transform="translate(13.3333, 9.3333)">
                <mask id="mask-2" fill="white">
                    <use xlink:href="#path-1"></use>
                </mask>
                <use id="Shape" fill="#394455" xlink:href="#path-1"></use>
            </g>
        </g>
    </g>
</svg>