<?xml version="1.0" encoding="UTF-8"?>
<svg width="242px" height="241px" viewBox="0 0 242 241" version="1.1" xmlns="http://www.w3.org/2000/svg" xmlns:xlink="http://www.w3.org/1999/xlink">
    <title>F934D5A8-D3C7-46C9-9DF8-E2BB51B722BD@1x</title>
    <g id="OTG" stroke="none" stroke-width="1" fill="none" fill-rule="evenodd">
        <g id="(8).Success(link-bank)" transform="translate(-105, -284)">
            <g id="Group-3" transform="translate(105.4118, 284.1462)">
                <g id="Group-2" transform="translate(0, -0)" fill="#F7F7F7" opacity="0.981189546">
                    <g id="Group" transform="translate(0, 0)">
                        <path d="M184.059285,69.5584586 C193.573349,83.1987348 210.871409,93.3559005 218.79965,108.15692 C226.872136,122.95794 225.573929,142.401934 219.808492,162.861468 C214.186426,183.175799 204.096255,213.506551 187.230931,220.471892 C170.509852,227.581556 147.157865,220.326689 125.535946,217.279188 C103.913153,214.376889 83.8770567,215.538512 63.407351,210.749455 C42.7942742,205.961278 21.4608456,186.078098 17.2803573,168.810388 C12.9556239,151.398356 25.6404597,127.455711 29.1005962,105.545027 C32.4156132,83.4891407 26.5059309,63.6095381 35.5872593,54.467913 C44.5243424,45.3262879 68.4524362,47.0678432 85.7504959,41.4084486 C102.90431,35.8942569 113.282971,22.8347924 126.400543,18.3370214 C139.518114,13.8383703 155.086106,17.7562096 163.878944,28.2037812 C172.671782,38.7965557 174.40185,55.9190624 184.059285,69.5584586 Z" id="Fill-1" transform="translate(120.4428, 119.9959) rotate(-10) translate(-120.4428, -119.9959)"></path>
                    </g>
                </g>
                <g id="Group-2" transform="translate(42.5882, 56.8538)">
                    <g id="aperture" transform="translate(78.2337, 77.1638) rotate(11) translate(-78.2337, -77.1638)translate(42.322, 40.7192)" fill="#1F6AA9">
                        <path d="M33.125,-3.86829206e-13 C40.4427729,-3.86829206e-13 46.375,5.93325248 46.375,13.2522903 L46.375,23.1915081 L61.7737401,23.1917205 C64.4648994,23.1612393 67.0430877,24.2232875 68.9285609,26.1176248 L69.3851621,26.6083979 C71.298323,28.8089132 72.1487685,31.7387288 71.7104832,34.6267835 L67.1400545,64.4390501 C66.3970609,69.3392811 62.1581124,72.9432028 57.24,72.8886515 L19.875,72.8886515 C19.8625181,72.8886515 19.8500523,72.8885824 19.837603,72.8884446 L9.9375,72.8875969 C4.64518207,72.8875969 0.319123337,68.7498344 0.0168695469,63.5323836 L-1.7653976e-12,62.9483791 L-1.7653976e-12,39.756871 C-1.7653976e-12,34.4636383 4.13704738,30.1368318 9.35359639,29.8345257 L9.9375,29.8176533 L17.722,29.817 L30.0979992,1.96750637 C30.6016778,0.834033749 31.6928794,0.08234287 32.9194038,0.00635732774 Z M35.1356875,6.93757399 L23.1875,33.8264711 L23.1875,66.2614517 L57.2770149,66.2622981 C58.8019809,66.2791326 60.1234372,65.2566835 60.5131668,63.8102502 L60.5907668,63.440165 L65.1612599,33.6274743 C65.3071026,32.6664436 65.0236208,31.6898384 64.3859005,30.9563333 C63.7481802,30.2228282 62.8205674,29.8064337 61.81125,29.8176533 L43.0625,29.8176533 C41.2330568,29.8176533 39.75,28.3343401 39.75,26.5045807 L39.75,13.2522903 C39.75,10.4244803 37.9789115,8.01040155 35.4856567,7.05915762 L35.1356875,6.93757399 Z M16.562,66.261 L16.562,36.443 L9.9375,36.4437984 C8.23873128,36.4437984 6.83863253,37.7227776 6.64728561,39.3704968 L6.625,39.756871 L6.625,62.9483791 C6.625,64.6474415 7.90375813,66.0477822 9.55119252,66.2391622 L9.9375,66.2614517 L16.562,66.261 Z" id="Combined-Shape"></path>
                    </g>
                    <path d="M129.037676,137.00969 C145.552689,122.705053 156,101.579529 156,78.0134827 C156,34.9278259 121.07821,0 78,0 C34.9217895,0 0,34.9278259 0,78.0134827 C0,121.09914 34.9217895,156.026965 78,156.026965 C95.1331133,156.026965 107.782749,153.026447 132.60015,166" id="Path" stroke="#1F6AA9" stroke-width="3"></path>
                </g>
            </g>
        </g>
    </g>
</svg>