<?xml version="1.0" standalone="no"?>
<!DOCTYPE svg PUBLIC "-//W3C//DTD SVG 20010904//EN"
 "http://www.w3.org/TR/2001/REC-SVG-20010904/DTD/svg10.dtd">
<svg version="1.0" xmlns="http://www.w3.org/2000/svg"
 width="770.000000pt" height="688.000000pt" viewBox="0 0 770.000000 688.000000"
 preserveAspectRatio="xMidYMid meet">

<g transform="translate(0.000000,688.000000) scale(0.100000,-0.100000)"
fill="#000000" stroke="none">
<path d="M1850 5803 c-12 -8 -30 -13 -40 -10 -11 3 -26 -3 -36 -14 -18 -20
-59 -26 -69 -9 -7 12 -33 2 -57 -22 -23 -23 -39 -23 -45 2 -3 13 -17 22 -40
26 -28 5 -37 3 -49 -15 -8 -11 -22 -21 -30 -21 -8 0 -14 -6 -14 -14 0 -8 -5
-27 -11 -43 -10 -27 -11 -27 -25 -9 -14 19 -14 19 -39 -4 l-25 -23 -9 24 c-5
13 -10 19 -10 12 -1 -7 -13 -24 -27 -38 -15 -15 -36 -45 -48 -68 -23 -43 -46
-59 -46 -33 0 9 -3 16 -7 16 -18 -1 -31 -17 -30 -35 1 -13 -5 -21 -18 -23 -30
-4 -65 -65 -65 -114 -1 -24 -7 -54 -15 -68 -16 -28 -20 -155 -6 -193 5 -13 5
-30 1 -37 -5 -8 -3 -22 6 -34 8 -11 14 -33 14 -48 0 -15 5 -30 10 -33 6 -3 10
-30 10 -58 0 -29 7 -65 15 -80 8 -16 12 -40 9 -57 -8 -36 12 -153 33 -200 31
-68 62 -100 95 -100 22 0 29 -4 25 -14 -6 -16 57 -150 83 -176 5 -5 22 -41 39
-82 5 -13 12 -48 15 -78 3 -30 7 -63 8 -74 2 -10 -6 -23 -17 -30 -67 -38 -61
-75 31 -177 41 -46 94 -102 117 -125 49 -47 159 -114 188 -114 11 0 27 -7 35
-15 9 -8 24 -15 35 -15 10 0 19 -4 19 -10 0 -5 7 -10 15 -10 8 0 15 -4 15 -10
0 -5 5 -10 10 -10 6 0 28 -11 50 -25 22 -14 45 -25 52 -25 7 0 36 21 63 45 28
25 61 48 75 52 35 9 49 31 48 78 0 35 5 45 45 80 25 22 49 53 53 68 3 16 13
31 21 34 21 8 44 -28 40 -62 -5 -34 26 -115 44 -115 6 0 26 9 44 20 l33 21 69
-37 c37 -21 80 -46 95 -56 39 -27 54 -23 32 9 -9 15 -27 45 -38 66 -11 21 -36
50 -56 65 -45 34 -60 49 -60 59 0 16 -64 69 -98 83 -24 9 -39 10 -56 2 -20 -9
-24 -7 -34 22 -15 42 -15 46 3 46 24 0 17 19 -10 32 -14 6 -24 17 -21 23 3 9
-10 11 -45 7 -29 -3 -49 -1 -49 6 0 5 -14 15 -30 22 -17 7 -37 25 -45 40 -8
15 -29 40 -47 55 -63 54 -83 109 -52 150 19 26 133 46 181 33 37 -10 73 -57
73 -95 0 -30 10 -53 24 -53 13 0 46 55 46 76 0 8 7 25 15 38 21 32 17 155 -5
166 -60 30 -133 52 -157 48 -27 -5 -22 24 7 39 42 21 113 16 154 -12 20 -13
36 -22 36 -19 0 22 -58 124 -83 146 -17 16 -28 31 -24 34 13 13 67 -22 78 -51
7 -16 20 -48 29 -70 10 -22 20 -47 23 -55 11 -32 25 37 22 109 -1 47 3 87 11
108 17 39 17 43 3 43 -5 0 -7 -4 -4 -10 3 -5 1 -10 -5 -10 -7 0 -9 8 -5 19 6
19 -23 39 -34 24 -9 -12 -91 -15 -91 -3 0 5 -18 10 -40 10 -23 0 -51 7 -64 15
-21 14 -24 14 -29 0 -9 -22 -42 -18 -74 9 l-27 24 17 55 c10 30 24 60 32 67 8
7 15 28 15 48 l0 36 21 -22 c23 -26 39 -21 39 11 0 18 2 19 10 7 5 -8 7 -23 4
-33 -6 -20 12 -47 32 -47 7 0 16 9 19 20 3 11 13 20 21 20 19 0 44 -24 44 -43
0 -7 3 -17 7 -21 4 -4 6 -22 5 -39 -2 -24 3 -39 22 -56 28 -26 52 -21 36 9 -5
10 -10 31 -10 46 0 24 3 26 30 21 29 -6 30 -5 30 32 0 25 -9 52 -26 76 -20 30
-23 40 -12 46 26 17 -12 61 -69 81 -47 16 -55 16 -88 2 -29 -12 -35 -19 -30
-34 9 -27 -3 -25 -26 4 -16 20 -25 23 -57 19 -33 -4 -41 -2 -55 21 -10 14 -23
26 -30 26 -7 0 -17 10 -22 22 -6 14 -30 30 -60 41 -119 45 -145 64 -118 84 19
15 21 14 -37 38 -25 11 -54 28 -66 39 -34 31 -13 69 56 102 99 48 240 48 333
-1 27 -14 52 -23 55 -21 9 10 -9 74 -25 87 -9 8 -22 28 -29 46 -9 20 -22 33
-36 35 -15 2 -24 11 -26 26 -3 18 -8 21 -23 17 -11 -4 -27 -1 -36 7 -13 10
-17 10 -20 1 -3 -7 -17 -13 -31 -12 l-27 1 25 7 c43 12 31 36 -15 33 -32 -3
-47 2 -67 21 -24 23 -28 24 -48 10z m143 -565 c21 -11 21 -11 2 -19 -11 -4
-60 -8 -109 -8 -76 -1 -87 1 -76 13 6 8 21 17 33 19 46 9 129 6 150 -5z m-83
-107 c0 -5 -7 -12 -16 -15 -24 -9 -28 -7 -14 9 14 17 30 20 30 6z m269 0 c12
-8 12 -12 2 -25 -17 -20 -27 -20 -35 0 -11 29 6 42 33 25z m-319 -96 c0 -17
39 -55 56 -55 7 0 16 9 19 21 7 22 28 21 33 -3 2 -8 -7 -19 -20 -25 l-23 -10
25 -13 c13 -7 31 -20 41 -29 21 -21 30 -103 17 -164 -9 -44 -8 -51 11 -71 12
-12 21 -27 21 -33 0 -6 10 -17 22 -25 24 -16 17 -38 -11 -38 -10 0 -34 11 -54
24 -19 13 -38 22 -41 19 -2 -3 -39 28 -80 69 -58 56 -81 86 -96 127 -10 30
-17 58 -14 62 3 5 25 17 50 28 40 18 44 23 41 48 -3 22 -10 29 -33 33 l-29 5
23 23 c25 25 42 28 42 7z m-414 -268 c4 -4 1 -13 -6 -22 -10 -12 -9 -15 6 -16
15 -1 15 -2 3 -6 -10 -2 -16 -15 -16 -33 0 -26 4 -30 28 -30 23 0 30 -7 45
-46 16 -43 16 -47 1 -56 -9 -5 -17 -16 -17 -23 0 -8 -4 -15 -10 -15 -5 0 -10
9 -10 21 0 12 -5 19 -12 16 -14 -5 -14 -11 -3 -39 5 -13 2 -18 -8 -18 -23 0
-28 13 -38 103 -4 45 -11 103 -15 129 -6 46 -6 47 20 44 14 -1 29 -6 32 -9z
m733 -73 c2 -2 2 -7 -2 -10 -8 -9 -47 6 -47 17 0 9 37 3 49 -7z m86 -13 c-15
-13 -65 -23 -65 -12 0 12 18 19 50 20 14 1 20 -3 15 -8z m-825 -298 c0 -22 -2
-24 -15 -13 -8 7 -15 24 -15 37 0 22 2 24 15 13 8 -7 15 -24 15 -37z m851
-496 c-17 -17 -24 -1 -10 25 12 21 14 21 17 4 2 -10 -1 -23 -7 -29z"/>
<path d="M1452 4600 c0 -14 2 -19 5 -12 2 6 2 18 0 25 -3 6 -5 1 -5 -13z"/>
<path d="M2133 5365 c0 -34 15 -42 26 -13 10 26 6 38 -13 38 -8 0 -13 -11 -13
-25z"/>
<path d="M2135 5308 c-9 -24 -2 -61 13 -66 14 -4 17 45 2 68 -8 12 -10 12 -15
-2z"/>
<path d="M2851 5088 c-65 -163 -353 -921 -396 -1040 -13 -36 -13 -39 19 -84
41 -61 122 -105 236 -128 47 -9 105 -24 130 -32 25 -9 68 -19 95 -24 60 -10
85 -18 168 -54 21 -9 50 -16 65 -16 15 0 52 -9 82 -20 30 -11 65 -20 77 -20
12 0 25 -5 28 -10 4 -6 11 -7 17 -4 22 14 -17 380 -62 589 -48 219 -159 495
-261 647 -54 80 -168 218 -180 218 -5 0 -14 -10 -18 -22z"/>
<path d="M2130 4896 c0 -2 7 -6 15 -10 8 -3 15 -1 15 4 0 6 -7 10 -15 10 -8 0
-15 -2 -15 -4z"/>
<path d="M4447 4677 c196 -586 227 -1405 77 -2052 -40 -176 -106 -375 -177
-533 -32 -73 -47 -116 -40 -123 5 -5 65 -10 133 -12 123 -2 124 -2 137 23 7
14 55 140 107 280 123 333 197 532 263 710 30 80 74 199 98 265 25 66 69 185
99 265 l54 145 -67 60 c-193 174 -321 347 -413 559 -45 103 -93 267 -103 352
-4 32 -11 67 -16 76 -11 21 -60 46 -108 54 -20 3 -46 12 -57 19 -20 13 -19 7
13 -88z"/>
<path d="M2406 4484 c-9 -23 -7 -62 3 -68 11 -7 21 18 21 55 0 31 -14 39 -24
13z"/>
<path d="M2346 4041 c-4 -7 -5 -15 -2 -18 9 -9 19 4 14 18 -4 11 -6 11 -12 0z"/>
<path d="M1476 3697 c-15 -19 -26 -38 -26 -43 0 -5 -22 -45 -50 -89 -27 -44
-50 -85 -50 -90 -1 -34 205 -47 296 -18 47 15 56 15 96 1 142 -51 212 -79 242
-97 18 -12 39 -21 46 -21 8 0 22 -8 32 -17 14 -13 21 -14 30 -5 17 17 -22 68
-49 64 -24 -3 -48 22 -40 42 6 15 -51 76 -71 76 -7 0 -12 4 -12 10 0 5 -18 13
-40 16 -22 4 -43 11 -46 15 -3 5 -14 9 -25 9 -10 0 -19 7 -19 15 0 8 -9 15
-20 15 -27 0 -70 21 -100 47 -14 13 -28 23 -32 23 -3 0 -13 6 -20 13 -23 23
-92 67 -105 67 -7 0 -23 -15 -37 -33z"/>
<path d="M2218 3583 c-10 -2 -18 -9 -18 -14 0 -5 -20 -9 -45 -9 -34 0 -47 -5
-55 -19 -13 -25 -13 -31 3 -31 20 0 125 54 131 68 3 6 4 11 3 11 -1 -1 -10 -3
-19 -6z"/>
<path d="M1272 3555 c0 -16 2 -22 5 -12 2 9 2 23 0 30 -3 6 -5 -1 -5 -18z"/>
<path d="M1445 3133 c-6 -5 -28 -46 -49 -93 -22 -47 -47 -96 -56 -110 -44 -65
-50 -91 -50 -207 0 -144 -36 -307 -78 -354 -15 -17 -32 -49 -37 -72 -6 -22
-15 -42 -21 -44 -12 -4 -24 40 -24 83 0 32 -12 30 -33 -6 -26 -43 -38 -38 -31
13 l6 42 -26 -30 c-23 -26 -26 -27 -25 -10 3 44 -1 57 -16 51 -8 -3 -15 -1
-15 5 0 6 -7 9 -15 5 -9 -3 -15 0 -15 9 0 19 -16 19 -24 0 -12 -31 -27 -15
-20 21 8 44 -7 40 -26 -6 -17 -41 -34 -38 -27 5 6 35 -8 49 -19 20 -4 -8 -9
-15 -13 -15 -14 0 -29 70 -24 108 4 29 1 41 -10 45 -12 4 -16 -7 -22 -59 -6
-55 -4 -70 14 -100 12 -19 21 -47 21 -62 0 -26 -3 -24 -50 28 l-49 55 25 -54
c14 -29 34 -79 46 -110 11 -31 27 -65 34 -76 8 -11 14 -28 14 -38 0 -10 12
-40 26 -68 14 -28 19 -48 12 -43 -37 21 -142 107 -209 170 -91 84 -198 168
-206 161 -9 -9 21 -44 81 -97 32 -28 69 -64 82 -80 14 -16 59 -55 102 -86 155
-115 172 -139 172 -244 0 -38 4 -70 9 -70 5 0 24 18 42 41 19 22 48 57 65 77
17 20 39 51 48 67 18 30 87 85 106 85 7 0 7 -7 0 -20 -6 -11 -19 -20 -30 -20
-12 0 -26 -15 -41 -45 -20 -41 -21 -48 -9 -87 7 -24 17 -59 23 -78 45 -156 85
-220 156 -245 69 -24 88 -20 137 31 43 44 84 107 84 129 0 6 25 35 55 65 55
54 90 104 174 247 38 63 52 78 119 119 164 102 272 188 272 216 0 5 -13 7 -30
3 -43 -9 -55 2 -35 32 9 14 14 27 11 30 -8 8 -74 -33 -138 -88 -38 -31 -154
-78 -194 -79 -34 0 -74 47 -74 87 0 45 25 92 128 246 66 98 83 130 74 139 -9
9 -17 7 -35 -10 -13 -12 -31 -22 -40 -22 -26 0 -32 28 -12 50 9 10 15 24 13
30 -4 14 -63 -50 -127 -139 -25 -34 -50 -61 -57 -61 -7 0 -14 -12 -16 -27 -2
-17 -9 -28 -18 -28 -18 0 -26 43 -11 58 6 6 11 25 11 41 0 18 19 64 46 111 70
122 124 232 124 254 0 27 -27 34 -40 11 -13 -25 -30 -26 -30 -2 -1 15 -2 15
-16 -3 -12 -16 -16 -17 -23 -6 -9 14 -31 7 -31 -11 0 -5 -12 -24 -26 -41 -14
-17 -37 -54 -50 -82 -13 -29 -30 -57 -38 -64 -27 -23 -8 67 33 158 37 80 58
140 50 142 -34 6 -96 7 -104 2z"/>
<path d="M3392 2751 c-13 -23 -20 -46 -16 -52 4 -7 15 6 26 30 26 57 18 73
-10 22z"/>
<path d="M532 2639 c2 -5 19 -20 38 -31 l35 -22 -29 32 c-29 32 -51 42 -44 21z"/>
<path d="M3340 2500 c0 -5 5 -10 10 -10 6 0 10 5 10 10 0 6 -4 10 -10 10 -5 0
-10 -4 -10 -10z"/>
<path d="M3356 2279 c-11 -114 -7 -235 9 -249 11 -9 13 -32 10 -113 -11 -244
-9 -309 10 -324 11 -7 14 -13 9 -13 -5 0 -18 -16 -28 -34 l-19 -35 31 -48 c18
-26 35 -53 39 -59 24 -32 32 -56 27 -81 -8 -40 27 -115 76 -163 22 -21 40 -47
40 -57 0 -12 -36 -42 -105 -88 -119 -79 -109 -55 -85 -200 6 -38 13 -127 15
-197 2 -70 7 -133 11 -140 5 -7 12 -35 16 -63 9 -54 27 -174 28 -190 2 -34 16
-36 99 -15 45 11 106 31 135 44 141 63 287 191 365 323 33 55 183 431 216 542
l7 24 -34 -26 c-33 -25 -34 -26 -46 -7 -17 27 -16 28 21 35 40 9 108 47 164
92 40 32 46 34 78 24 90 -28 102 -31 114 -31 8 0 42 -27 77 -60 61 -57 174
-140 191 -140 4 0 21 -7 36 -15 46 -24 92 -29 106 -11 17 20 6 36 -24 36 -13
0 -32 10 -42 23 -10 12 -31 29 -47 37 -16 8 -35 25 -44 37 -8 13 -20 23 -28
23 -7 0 -26 16 -41 35 -15 20 -43 45 -61 56 -29 19 -32 24 -26 55 7 36 -9 47
-33 23 -15 -15 -73 7 -73 26 0 8 -2 19 -5 27 -4 10 9 12 57 11 35 -2 72 -7 83
-13 11 -5 58 -11 105 -13 47 -3 105 -10 130 -16 25 -7 74 -19 110 -26 36 -8
85 -19 110 -25 25 -6 70 -14 102 -17 50 -5 57 -3 67 16 10 19 9 22 -14 31 -15
6 -33 10 -41 10 -21 0 -52 17 -94 52 -28 23 -44 28 -86 28 -34 0 -56 5 -64 15
-9 11 -9 15 -1 15 21 0 1 20 -36 35 -19 8 -51 15 -69 15 -19 0 -44 6 -55 13
-17 10 -23 10 -26 0 -6 -17 -63 -16 -85 1 -23 17 -23 38 1 67 l20 24 15 -35
c8 -19 15 -30 16 -23 1 32 130 34 285 4 28 -6 66 -13 85 -16 19 -4 44 -10 55
-15 18 -8 133 -28 194 -33 13 -1 28 6 35 16 13 21 3 29 -69 52 -34 11 -62 30
-87 58 -33 36 -39 40 -61 30 -19 -9 -28 -7 -48 9 -13 10 -48 31 -78 45 -51 24
-61 25 -155 19 -121 -8 -166 -21 -166 -46 0 -30 -26 -44 -50 -27 -22 15 -22
15 -3 34 19 18 19 19 -11 61 -25 35 -28 45 -16 52 9 6 24 3 42 -8 25 -15 29
-15 45 0 24 22 151 68 186 68 10 0 25 4 35 10 9 5 42 14 72 19 136 25 206 49
216 76 4 9 5 18 2 20 -2 2 -54 6 -116 9 -97 5 -114 3 -119 -10 -5 -12 -15 -14
-47 -10 -54 8 -137 -8 -148 -28 -5 -9 -14 -14 -19 -11 -5 4 -35 -1 -67 -10
-31 -10 -67 -17 -79 -17 -13 0 -23 -4 -23 -9 0 -5 -7 -9 -15 -9 -8 0 -15 -9
-15 -20 0 -11 -7 -20 -15 -20 -21 0 -95 38 -95 49 0 5 -19 9 -42 9 -106 3
-204 35 -255 84 -17 16 -36 27 -42 24 -6 -4 -11 0 -11 8 0 17 -59 76 -76 76
-6 0 -17 15 -26 33 -19 41 -74 69 -89 46 -15 -24 -10 -86 12 -144 16 -43 20
-70 15 -118 -8 -95 -7 -108 10 -173 13 -49 14 -75 6 -144 -6 -45 -8 -90 -5
-99 5 -13 3 -14 -8 -3 -20 19 -49 14 -99 -14 -25 -15 -54 -28 -65 -29 -11 -1
-23 -3 -27 -4 -4 0 -10 -10 -13 -21 -5 -16 -15 -20 -46 -20 -31 0 -46 -6 -67
-28 -25 -27 -32 -28 -107 -28 l-80 1 2 32 c3 39 -11 50 -43 32 -13 -7 -27 -10
-30 -6 -12 12 8 46 29 49 12 2 23 11 25 20 2 13 -1 16 -12 12 -18 -7 -23 21
-6 31 6 3 10 14 10 25 0 11 11 22 28 28 15 6 36 17 46 25 18 13 11 14 -65 11
l-84 -4 63 41 c65 43 73 59 46 97 -8 12 -13 30 -9 40 7 23 -19 48 -70 65 -50
17 -54 30 -13 42 26 8 33 15 33 35 0 21 -5 26 -32 28 -37 4 -38 7 -19 41 15
27 11 51 -9 51 -8 0 -15 42 -24 142 -6 79 -15 146 -20 151 -4 4 -11 -20 -15
-54z m914 -349 c0 -11 -7 -20 -15 -20 -15 0 -21 21 -8 33 12 13 23 7 23 -13z
m86 -45 c18 -14 17 -14 -13 -15 -18 0 -33 -4 -33 -10 0 -5 5 -10 10 -10 6 0
10 -5 10 -11 0 -8 -12 -10 -36 -6 -45 8 -46 9 -38 41 5 22 12 26 43 26 21 0
46 -7 57 -15z m84 -340 c-7 -9 -15 -13 -17 -11 -7 7 7 26 19 26 6 0 6 -6 -2
-15z m38 -34 c3 -20 0 -22 -25 -19 -28 3 -28 2 -28 -49 0 -28 -3 -55 -7 -59
-5 -4 -25 -2 -45 4 -21 6 -55 14 -75 17 -36 6 -108 64 -108 87 0 18 32 7 37
-13 4 -14 12 -19 24 -16 10 3 27 -2 38 -10 12 -8 36 -13 54 -11 24 2 33 8 35
26 2 14 10 22 22 22 11 0 27 11 36 25 20 30 38 28 42 -4z m202 -51 c0 -5 -2
-10 -4 -10 -3 0 -8 5 -11 10 -3 6 -1 10 4 10 6 0 11 -4 11 -10z m-168 -75 c-2
-11 -10 -27 -18 -35 -19 -20 -34 -2 -27 33 4 22 10 27 27 25 15 -2 20 -9 18
-23z m-692 -25 c0 -5 -4 -10 -10 -10 -5 0 -10 5 -10 10 0 6 5 10 10 10 6 0 10
-4 10 -10z m-123 -167 c-3 -10 -5 -2 -5 17 0 19 2 27 5 18 2 -10 2 -26 0 -35z
m353 -13 c14 -10 22 -21 19 -25 -10 -9 -59 17 -59 32 0 18 10 16 40 -7z m-292
-112 c13 -13 39 -21 78 -25 32 -3 61 -7 63 -9 19 -17 -102 -31 -164 -20 -39 8
-115 69 -115 93 0 10 9 7 33 -11 39 -30 63 -22 53 18 -11 43 6 52 20 11 7 -21
21 -47 32 -57z"/>
<path d="M316 2173 c11 -47 33 -83 80 -129 80 -78 79 -53 -3 54 -18 24 -41 58
-49 73 -19 37 -36 38 -28 2z"/>
<path d="M470 2044 c0 -30 61 -90 145 -141 33 -20 73 -49 89 -65 17 -15 34
-28 39 -28 15 0 -33 53 -68 74 -19 12 -70 54 -114 94 -75 68 -91 80 -91 66z"/>
<path d="M3880 1850 c-12 -7 -8 -10 15 -10 17 0 37 5 45 10 12 7 8 10 -15 10
-16 0 -37 -5 -45 -10z"/>
<path d="M3818 1823 c7 -3 16 -2 19 1 4 3 -2 6 -13 5 -11 0 -14 -3 -6 -6z"/>
<path d="M3890 1790 c0 -5 17 -10 38 -10 27 0 33 3 22 10 -20 13 -60 13 -60 0z"/>
<path d="M3695 1680 c-8 -13 5 -13 25 0 13 8 13 10 -2 10 -9 0 -20 -4 -23 -10z"/>
<path d="M3558 1658 c-34 -12 -37 -28 -5 -28 25 1 60 24 50 33 -8 8 -11 8 -45
-5z"/>
<path d="M3655 1660 c4 -6 11 -8 16 -5 14 9 11 15 -7 15 -8 0 -12 -5 -9 -10z"/>
<path d="M1139 1606 c9 -10 9 -20 0 -40 -7 -14 -16 -26 -21 -26 -5 0 -27 -17
-51 -38 -23 -21 -59 -50 -79 -65 -21 -16 -38 -36 -38 -45 0 -17 -50 -52 -76
-52 -8 0 -14 -10 -14 -25 0 -16 -7 -28 -17 -31 -22 -7 -65 -26 -116 -49 -45
-21 -164 -126 -189 -167 -10 -16 -29 -34 -43 -40 -14 -6 -25 -19 -25 -28 0
-21 -25 -43 -41 -38 -8 3 -11 30 -10 87 3 98 -13 103 -22 7 -8 -82 14 -191 53
-268 17 -32 26 -58 21 -58 -5 0 -11 6 -14 13 -2 6 -8 8 -13 4 -13 -12 -9 -100
5 -105 6 -2 11 -15 11 -28 0 -41 15 -59 72 -83 96 -43 141 -56 168 -52 40 6
101 46 155 103 33 34 97 98 143 143 89 86 102 104 132 180 4 11 15 37 24 59
18 42 16 56 -4 31 -13 -16 -40 -21 -40 -7 0 4 7 18 16 30 21 30 10 42 -35 42
-41 0 -101 25 -101 42 0 6 9 8 23 4 12 -3 50 -9 84 -13 l61 -6 21 41 c26 50
26 64 3 85 -23 21 -39 22 -22 2 17 -21 4 -32 -20 -17 -11 7 -27 12 -35 12 -18
0 -19 12 -3 28 19 19 4 22 -26 6 -36 -18 -39 -15 -17 15 15 20 21 22 39 12 28
-15 54 -14 78 4 19 14 19 14 -3 30 -29 20 -31 40 -4 25 21 -11 37 2 26 20 -7
12 10 13 33 2 9 -5 31 -5 47 -2 l30 7 -42 18 c-52 22 -55 35 -8 35 35 0 49 20
24 36 -8 4 -7 9 2 15 10 6 11 9 2 9 -7 0 -13 5 -13 10 0 14 32 12 52 -4 13
-10 15 -15 6 -24 -9 -9 -8 -12 5 -12 9 0 24 11 33 25 15 23 15 27 1 48 -16 25
-156 87 -195 87 -12 0 -22 5 -22 10 0 6 -5 10 -11 10 -8 0 -8 -4 0 -14z m-242
-322 c-3 -3 -12 -4 -19 -1 -8 3 -5 6 6 6 11 1 17 -2 13 -5z m63 -180 c0 -2 -7
-4 -15 -4 -8 0 -15 4 -15 10 0 5 7 7 15 4 8 -4 15 -8 15 -10z m-12 -59 c-3 -3
-9 2 -12 12 -6 14 -5 15 5 6 7 -7 10 -15 7 -18z m-460 -114 c-10 -16 -15 -17
-26 -8 -12 9 -11 12 5 18 30 12 34 10 21 -10z m7 -220 c3 -5 1 -12 -5 -16 -5
-3 -10 1 -10 9 0 18 6 21 15 7z m-35 -11 c0 -5 -4 -10 -10 -10 -5 0 -10 5 -10
10 0 6 5 10 10 10 6 0 10 -4 10 -10z"/>
<path d="M3595 1569 c-28 -19 -28 -20 -5 -14 27 8 46 22 39 29 -3 3 -18 -4
-34 -15z"/>
<path d="M535 1546 c-16 -7 -38 -12 -47 -10 -23 3 -23 -3 4 -42 20 -29 74 -64
98 -64 11 0 47 37 61 62 7 14 1 22 -34 43 -50 29 -44 28 -82 11z"/>
<path d="M749 1529 c-13 -25 -6 -96 10 -112 8 -8 11 9 11 61 0 40 -2 72 -5 72
-2 0 -9 -10 -16 -21z"/>
<path d="M444 1385 c-16 -13 -17 -16 -4 -25 16 -10 46 -5 67 12 33 26 -29 39
-63 13z"/>
<path d="M1350 1383 c-20 -11 -31 -34 -48 -93 -12 -43 -33 -103 -47 -133 -24
-51 -25 -57 -12 -88 8 -19 17 -52 21 -74 8 -47 26 -95 35 -95 3 0 15 51 25
113 10 61 22 135 27 162 11 62 29 218 26 221 -1 2 -14 -4 -27 -13z"/>
<path d="M564 1333 c-56 -86 -85 -151 -93 -207 -5 -34 -6 -64 -2 -69 17 -17
74 76 85 138 8 47 25 103 37 127 22 44 0 52 -27 11z"/>
<path d="M370 1324 c-19 -13 -40 -23 -46 -23 -22 -2 -84 -72 -84 -96 0 -28 26
-25 33 3 4 15 5 15 6 0 1 -24 12 -23 71 8 64 33 125 104 91 104 -5 0 -16 6
-23 13 -11 12 -19 10 -48 -9z"/>
<path d="M283 1137 c-11 -12 -25 -31 -30 -42 -16 -32 -25 -110 -15 -136 5 -13
15 -42 22 -64 7 -22 19 -49 26 -59 12 -18 14 -18 25 8 11 23 10 29 -1 36 -14
9 -18 31 -21 105 -2 37 14 136 24 152 14 22 -10 22 -30 0z"/>
<path d="M1277 833 c-4 -3 -7 -21 -7 -39 0 -18 -5 -36 -11 -40 -6 -3 -8 -17
-4 -31 3 -14 2 -30 -4 -36 -5 -7 -11 -23 -13 -37 -2 -21 -8 -25 -33 -22 -27 2
-34 -3 -62 -51 -100 -167 -266 -300 -444 -357 -34 -11 -70 -20 -80 -20 -10 0
-21 -5 -24 -10 -4 -7 85 -9 271 -8 l277 3 29 69 c20 50 28 86 28 131 0 61 12
104 49 175 24 46 28 67 36 183 7 94 6 105 -8 90z"/>
<path d="M316 813 c-4 -9 -2 -19 3 -22 5 -3 21 -33 36 -65 24 -52 29 -57 38
-41 7 14 7 20 -1 23 -7 2 -12 12 -12 23 0 10 -3 19 -7 19 -9 0 -33 49 -33 67
0 19 -17 16 -24 -4z"/>
<path d="M422 758 c-14 -14 -16 -38 -3 -38 8 0 23 41 17 47 -1 1 -8 -3 -14 -9z"/>
<path d="M1250 285 c-6 -15 -8 -31 -5 -36 3 -4 -2 -20 -11 -34 -16 -24 -16
-25 7 -25 19 0 21 2 9 10 -13 8 -13 10 2 10 11 0 15 5 12 14 -3 9 3 20 15 28
26 16 27 34 1 48 -17 9 -22 7 -30 -15z"/>
</g>
</svg>
