<?xml version="1.0" standalone="no"?>
<!DOCTYPE svg PUBLIC "-//W3C//DTD SVG 20010904//EN"
 "http://www.w3.org/TR/2001/REC-SVG-20010904/DTD/svg10.dtd">
<svg version="1.0" xmlns="http://www.w3.org/2000/svg"
 width="318.000000pt" height="339.000000pt" viewBox="0 0 318.000000 339.000000"
 preserveAspectRatio="xMidYMid meet">

<g transform="translate(0.000000,339.000000) scale(0.100000,-0.100000)"
fill="#00beaf" stroke="none">
<path d="M1423 3379 c-674 -71 -1235 -573 -1382 -1237 -77 -341 -36 -703 115
-1022 198 -418 592 -744 1033 -855 175 -44 223 -48 571 -50 304 -1 345 -3 437
-23 124 -27 247 -69 373 -128 88 -42 95 -44 107 -27 7 9 12 22 10 27 -4 13
-185 94 -292 131 -177 61 -228 67 -640 75 -324 7 -393 11 -470 28 -308 68
-557 203 -775 422 -223 222 -364 486 -427 797 -25 124 -25 442 0 566 112 554
504 999 1032 1172 176 58 257 70 475 70 218 0 299 -12 475 -70 462 -151 829
-518 980 -980 59 -179 70 -256 69 -480 0 -168 -4 -216 -22 -302 -62 -287 -196
-539 -398 -752 -97 -102 -97 -102 -77 -122 19 -20 20 -19 105 69 174 180 298
383 372 607 192 576 45 1197 -383 1626 -343 342 -810 508 -1288 458z"/>
<path d="M1628 2528 c-9 -7 -93 -124 -188 -260 -102 -148 -178 -248 -188 -248
-8 0 -53 7 -99 16 -75 14 -89 14 -136 0 -55 -16 -94 -49 -120 -101 -25 -50
-110 -511 -105 -567 6 -55 43 -110 96 -141 33 -19 967 -207 1030 -207 64 0
138 45 167 100 7 14 60 159 119 323 111 312 120 352 91 419 -17 43 -72 92
-117 106 -18 6 -98 23 -178 38 -80 15 -146 28 -148 29 -2 2 7 54 19 116 23
124 22 184 -6 243 -47 99 -183 176 -237 134z m112 -173 c26 -42 25 -73 -6
-235 -27 -144 -26 -175 9 -190 12 -5 108 -26 212 -46 105 -20 196 -41 204 -47
37 -30 33 -49 -75 -349 -57 -160 -111 -302 -119 -315 -11 -16 -25 -23 -48 -23
-35 0 -674 123 -682 132 -4 4 108 606 119 634 4 10 81 121 268 386 74 105 83
109 118 53z m-590 -449 c46 -9 64 -17 63 -27 -3 -23 -104 -553 -108 -565 -5
-16 -144 12 -167 34 -26 22 -23 61 27 312 55 279 50 272 185 246z"/>
</g>
</svg>
