<?xml version="1.0" encoding="UTF-8"?>
<svg width="34px" height="34px" viewBox="0 0 34 34" version="1.1" xmlns="http://www.w3.org/2000/svg" xmlns:xlink="http://www.w3.org/1999/xlink">
    <title>919387BD-CE0F-4B94-B89E-490DADB7386D@1.5x</title>
    <defs>
        <path d="M7.3931458,1.02308334 C7.96007529,0.775684707 8.62021868,1.03471565 8.86761731,1.60164514 C9.11501595,2.16857464 8.85598501,2.82871802 8.28905552,3.07611666 C4.13747924,4.88779575 1.70422634,9.24626014 2.34063288,13.7309846 C2.97703942,18.2157091 6.52679085,21.7251529 11.0184903,22.3103047 C15.5101898,22.8954564 19.8405835,20.4125907 21.6047355,16.2405967 C21.845644,15.670879 22.5027863,15.4043264 23.072504,15.6452349 C23.6422217,15.8861433 23.9087743,16.5432856 23.6678658,17.1130033 C21.51168,22.2121072 16.2189766,25.2467208 10.7291217,24.5315354 C5.23926676,23.8163499 0.900681679,19.5270296 0.122851465,14.0456997 C-0.654978749,8.56436983 2.31899701,3.23735779 7.3931458,1.02308334 Z M12.3211007,0 C15.5885678,0 18.722208,1.29799627 21.0326562,3.60844446 C23.3431044,5.91889264 24.6411007,9.05253285 24.6411007,12.32 C24.6411007,12.9385589 24.1396596,13.44 23.5211007,13.44 L12.3211007,13.44 C11.7025417,13.44 11.2011007,12.9385589 11.2011007,12.32 L11.2011007,1.12 C11.2011007,0.50144108 11.7025417,0 12.3211007,0 Z M13.4411007,2.30238037 L13.4411007,11.2 L22.3387203,11.2 C22.0859636,8.93869889 21.0732155,6.81684214 19.448737,5.19236365 C17.8242585,3.56788515 15.7024018,2.55513703 13.4411007,2.30238037 Z" id="path-1"></path>
    </defs>
    <g id="FDA-plugin" stroke="none" stroke-width="1" fill="none" fill-rule="evenodd">
        <g id="Busget.success.ii" transform="translate(-199, -541)">
            <g id="Group-7" transform="translate(0, -20)">
                <g id="Group-6" transform="translate(30.5, 367.9158)">
                    <g id="Group-5" transform="translate(23.5, 60.0842)">
                        <g id="OS" transform="translate(89, 133)">
                            <g id="Group-15" transform="translate(56, 0)">
                                <g id="02.02-Buttons/Primary-Small/Circle/Default" transform="translate(16.8613, 16.8) scale(1, -1) translate(-16.8613, -16.8)">
                                    <g id="Shape/Circle">
                                        <rect id="Shadow" x="0" y="0" width="33.7226277" height="33.6" rx="16.8"></rect>
                                        <rect id="Fill" fill="#4a77ad" opacity="0.2" x="0" y="0" width="33.7226277" height="33.6" rx="16.8"></rect>
                                        <g id="Outline-Tint" stroke="#ffffff" stroke-width="1.68">
                                            <rect id="Outline" x="0.84" y="0.84" width="32.0426277" height="31.92" rx="15.96"></rect>
                                        </g>
                                    </g>
                                    <g id="Icon-Placeholder" transform="translate(4.5413, 4.48)">
                                        <mask id="mask-2" fill="white">
                                            <use xlink:href="#path-1"></use>
                                        </mask>
                                        <use id="Combined-Shape" fill="#ffffff" xlink:href="#path-1"></use>
                                    </g>
                                </g>
                            </g>
                        </g>
                    </g>
                </g>
            </g>
        </g>
    </g>
</svg>