<?xml version="1.0" encoding="UTF-8"?>
<svg width="25px" height="24px" viewBox="0 0 25 24" version="1.1" xmlns="http://www.w3.org/2000/svg" xmlns:xlink="http://www.w3.org/1999/xlink">
    <title>7B3E3267-2B11-4032-939E-72C80F3B51E5@1.5x</title>
    <defs>
        <path d="M5.28081843,0.730773817 C5.68576807,0.554060505 6.15729906,0.739082605 6.33401237,1.14403224 C6.51072568,1.54898188 6.32570358,2.02051287 5.92075394,2.19722618 C2.95534231,3.49128268 1.21730453,6.60447153 1.67188063,9.80784614 C2.12645673,13.0112208 4.66199346,15.5179664 7.87035023,15.9359319 C11.078707,16.3538974 14.1718453,14.5804219 15.4319539,11.6004262 C15.6040314,11.193485 16.0734188,11.0030903 16.48036,11.1751678 C16.8873012,11.3472452 17.0776959,11.8166326 16.9056184,12.2235738 C15.3654857,15.8657908 11.5849833,18.033372 7.66365834,17.5225253 C3.7423334,17.0116785 0.643344057,13.9478783 0.0877510466,10.0326427 C-0.467841963,6.11740702 1.65642644,2.31239842 5.28081843,0.730773817 Z M8.80078618,0 C11.1346913,0 13.3730057,0.927140195 15.0233259,2.57746033 C16.673646,4.22778046 17.6007862,6.46609489 17.6007862,8.8 C17.6007862,9.2418278 17.242614,9.6 16.8007862,9.6 L8.80078618,9.6 C8.35895838,9.6 8.00078618,9.2418278 8.00078618,8.8 L8.00078618,0.8 C8.00078618,0.3581722 8.35895838,0 8.80078618,0 Z M9.60078618,1.6445574 L9.60078618,8 L15.9562288,8 C15.7756883,6.38478492 15.0522968,4.86917296 13.891955,3.70883118 C12.7316132,2.54848939 11.2160013,1.82509788 9.60078618,1.6445574 Z" id="path-1"></path>
    </defs>
    <g id="Demo-push" stroke="none" stroke-width="1" fill="none" fill-rule="evenodd">
        <g id="Insight.spend.i" transform="translate(-100.000000, -1140.000000)">
            <g id="Group-10" transform="translate(13.000000, 140.000000)">
                <g id="Component*-/-UI-/-Cards-/-Budget-spend" transform="translate(3.000000, 573.000000)">
                    <g id="Split" transform="translate(-18.010057, 330.823076)">
                        <g id="Group-4" transform="translate(62.010057, 96.176924)">
                            <g id="Group-15" transform="translate(40.000000, 0.000000)">
                                <g id="02.02-Buttons/Primary-Small/Circle/Default" transform="translate(12.043796, 12.000000) scale(1, -1) translate(-12.043796, -12.000000) ">
                                    <g id="Shape/Circle">
                                        <rect id="Shadow" x="0" y="0" width="24.0875912" height="24" rx="12"></rect>
                                        <rect id="Fill" fill="#4a77ad" opacity="0.2" x="0" y="0" width="24.0875912" height="24" rx="12"></rect>
                                        <g id="Outline-Tint" stroke="#ffffff" stroke-width="1.2">
                                            <rect id="Outline" x="0.6" y="0.6" width="22.8875912" height="22.8" rx="11.4"></rect>
                                        </g>
                                    </g>
                                    <g id="Icon-Placeholder" transform="translate(3.243796, 3.200000)">
                                        <mask id="mask-2" fill="white">
                                            <use xlink:href="#path-1"></use>
                                        </mask>
                                        <use id="Combined-Shape" fill="#ffff" xlink:href="#path-1"></use>
                                    </g>
                                </g>
                            </g>
                        </g>
                    </g>
                </g>
            </g>
        </g>
    </g>
</svg>